<?xml version="1.0" encoding="UTF-8"?>
<svg id="Layer_1" xmlns="http://www.w3.org/2000/svg" version="1.1" viewBox="0 0 150 150">
  <!-- Generator: Adobe Illustrator 29.6.1, SVG Export Plug-In . SVG Version: 2.1.1 Build 9)  -->
  <defs>
    <style>
      .st0, .st1 {
        fill: #336;
      }

      .st0, .st2 {
        display: none;
      }
    </style>
  </defs>
  <g id="Layer_11" data-name="Layer_1">
    <path class="st1" d="M123.7,1.4c-1.2-1.1-2.7-1.6-4.3-1.3L29.2,9.5h-.3c-.5,0-1.1.3-1.6.4-.1,0-.3.1-.3.1-.3.1-.5.3-.7.4-.1.1-.3.3-.4.4,0,0-.3.1-.3.3-.4.4-.7.9-.8,1.3,0,.1,0,.3-.1.4-.1.5-.3,1.1-.3,1.7v107.8c0,2.4,1.6,4.5,3.9,5.2l70.5,21h1.5c1.2,0,2.4-.3,3.5-.9,1.5-1.1,2.3-2.8,2.3-4.5v-25.8l14.6-1.6c2.8-.3,4.9-2.7,4.9-5.5V5.5c0-1.6-.7-3.1-1.9-4h-.1ZM94.9,136.3l-59.6-17.6V21.6l59.6,12.8v101.9ZM114.6,106l-8.6.9V30c0-2.7-1.9-4.9-4.5-5.3l-36.7-7.8,49.9-5.2s0,94.3,0,94.3Z"/>
    <path class="st0" d="M58.1,51.8c-8.5,3.1-13.8,11.8-13.8,20.4s5.3,17.3,13.8,20.4c12.1,4.3,26.7-4,26.7-20.4s-14.6-24.6-26.7-20.4ZM52.7,58.5c-.9,2-1.6,4.4-2,7.1l-3.5.4c1.1-2.9,3.1-5.6,5.5-7.5ZM46.4,72c0-1.6.3-3.1.7-4.5l3.7-.4c-.1,1.5-.3,2.9-.3,4.5s.1,2.9.3,4.5l-3.9-.3c-.3-1.2-.4-2.4-.4-3.7h-.1ZM47,77.5l3.7.4c.4,3.3,1.3,6.1,2.7,8.4-3.1-2.1-5.3-5.3-6.4-8.8ZM57,88.3l-.8-.3c-1.7-1.9-3.5-5.6-4.3-10l4.9.5v9.7h.1ZM57,76.7l-5.1-.4c-.1-1.6-.3-3.1-.3-4.7s.1-3.1.3-4.7l5.1-.5v10.1h0ZM57,64.7l-4.9.7c.7-3.3,1.7-6.5,2.9-8.5.7-.4,1.2-.5,2-.8v8.6ZM75,62.5l-7.3.9c-.8-3.3-1.7-6.1-3.2-7.8,4,.7,8,3.1,10.5,6.9ZM59,55.5c.8-.3,1.5-.4,2.3-.4,1.6,1.5,3.2,4.7,4.1,8.5l-6.4.8v-8.9ZM59,66.5l6.7-.7c.3,1.9.5,3.9.5,5.9s-.3,3.9-.5,5.9l-6.7-.5v-10.4h0ZM59.8,89.1l-.8-.3v-10l6.4.8c-1.2,5.1-3.5,8.5-5.6,9.4h0ZM63.5,88.9c1.9-1.9,3.5-5.1,4.3-9.2l8,.9c-2.5,4.8-7.2,7.7-12.1,8.2h-.1ZM67.9,77.6c.3-2,.5-4,.5-6s-.3-4-.5-6l8-.8c1.1,2.1,1.7,4.7,1.7,7.3s-.4,4.3-1.1,6.3l-8.6-.7h0Z"/>
    <path class="st0" d="M123.7,1.4c-1.2-1.1-2.7-1.6-4.3-1.3L29.2,9.5h-.3c-.5,0-1.1.3-1.6.4-.1,0-.3.1-.3.1-.3.1-.5.3-.7.4-.1.1-.3.3-.4.4,0,0-.3.1-.3.3-.4.4-.7.9-.8,1.3,0,.1,0,.3-.1.4-.1.5-.3,1.1-.3,1.7v107.8c0,2.4,1.6,4.5,3.9,5.2l70.5,21h1.5c1.2,0,2.4-.3,3.5-.9,1.5-1.1,2.3-2.8,2.3-4.5v-25.8l14.6-1.6c2.8-.3,4.9-2.7,4.9-5.5V5.5c0-1.6-.7-3.1-1.9-4h-.1ZM94.9,136.3l-59.6-17.6V21.6l59.6,12.8v101.9ZM114.6,106l-8.6.9V30c0-2.7-1.9-4.9-4.5-5.3l-36.7-7.8,49.9-5.2s0,94.3,0,94.3ZM53.5,74.3c-1.1-1.7-1.9-3.6-2.5-5.5-.4-1.1-.5-2.3-.7-3.3-.3-2.5.9-4.9,2.9-6.3,1.1-.8,2.4-1.1,3.7-.9,2.5.3,4.7,1.3,6.4,3.2.5.5.9,1.2,1.3,1.9,0,.1.1.3.1.4v-.3c1.1-1.3,2.7-2.3,4.5-2.5,2.5-.3,5.2.7,6.9,2.7,1.2,1.2,2.1,2.8,2.7,4.5.5,1.9.5,3.9,0,5.9-.7,1.9-1.5,3.6-2.8,5.1-1.5,1.9-3.2,3.6-5.1,5.2-1.7,1.6-3.6,2.9-5.7,4.1l-.7.4v-.4c-2.4-2.3-4.7-4.7-6.7-7.3-1.7-2.1-3.3-4.5-4.8-6.8h.3Z"/>
    <g class="st2">
      <path class="st1" d="M64.5,51.8c-11.2,0-20.4,9.2-20.4,20.4s9.2,20.4,20.4,20.4,20.4-9.2,20.4-20.4-9.2-20.4-20.4-20.4ZM58.1,57.1c-1.3,2-2.1,4.5-2.8,7.5h-5.3c1.7-3.5,4.7-6,8.1-7.5ZM48.2,72c0-2,.4-3.9,1.1-5.6h5.7c-.3,1.7-.4,3.5-.4,5.2s.3,3.5.4,5.2h-6.3c-.4-1.5-.7-3.1-.7-4.7h.1ZM49.4,78.7h5.7c.7,3.6,2,6.7,3.6,8.8-4.3-1.5-7.7-4.7-9.4-8.8h.1ZM63.4,88.5h-.8c-2.1-1.5-4.3-5.2-5.3-9.8h6.3v9.8h-.1ZM63.4,76.8h-6.4c-.3-1.7-.4-3.5-.4-5.2s.3-3.5.4-5.2h6.4v10.2h0ZM63.4,64.6h-6.3c.8-3.6,2.4-6.8,3.9-8.5.8-.3,1.5-.3,2.4-.3,0,0,0,8.8,0,8.8ZM79,64.6h-5.3c-.7-3.1-1.5-5.6-2.8-7.5,3.5,1.5,6.4,4.1,8.1,7.5ZM65.5,55.8c.8,0,1.5,0,2.4.3,1.5,1.7,3.1,4.9,3.9,8.5h-6.3s0-8.8,0-8.8ZM65.5,66.6h6.4c.3,1.7.4,3.5.4,5.2s-.3,3.5-.4,5.2h-6.4v-10.2h0ZM66.3,88.5h-.8v-9.8h6.3c-1.1,4.7-3.2,8.4-5.3,9.8h-.1ZM70,87.5c1.7-2.1,3.1-5.2,3.6-8.8h5.7c-1.7,4.1-5.2,7.3-9.4,8.8h.1ZM73.9,76.8c.3-1.7.4-3.5.4-5.2s-.3-3.5-.4-5.2h5.7c.7,1.7,1.1,3.6,1.1,5.6s-.3,3.2-.7,4.7h-6.3.1Z"/>
      <g>
        <path class="st1" d="M84.8,101.8h-40.7c-.8,0-1.3-.5-1.3-1.3s.5-1.3,1.3-1.3h40.7c.8,0,1.3.5,1.3,1.3s-.5,1.3-1.3,1.3Z"/>
        <path class="st1" d="M77.2,109.2h-25.7c-.8,0-1.3-.5-1.3-1.3s.5-1.3,1.3-1.3h25.7c.8,0,1.3.5,1.3,1.3s-.5,1.3-1.3,1.3Z"/>
      </g>
    </g>
    <path class="st1" d="M61,44.2c-8.4,1.7-14.1,11.4-14.1,21.8s5.7,20.9,14.1,23.8,21.4-5.6,21.4-21.3-10.9-26.5-21.4-24.3ZM55.9,50.9c-.9,2.1-1.6,4.8-2,8h-3.6c1.1-3.3,3.1-6.1,5.6-8ZM49.3,66.2c0-1.9.3-3.7.7-5.3h3.9c-.1,1.7-.3,3.5-.3,5.2s.1,3.5.3,5.3l-4.1-.5c-.3-1.5-.4-2.9-.4-4.7ZM50.1,72.7l3.9.7c.4,3.9,1.3,7.2,2.7,9.7-3.1-2.4-5.3-6.1-6.5-10.4ZM60.1,85.4l-.7-.3c-1.7-2.1-3.3-6.4-4.1-11.4l4.8.8v10.9h0ZM60.1,72.2l-4.9-.7c-.1-1.9-.3-3.6-.3-5.3s.1-3.6.3-5.3h4.9v11.4h0ZM60.1,58.7h-4.8c.7-3.7,1.7-7.2,2.9-9.2.7-.4,1.2-.4,1.9-.5v9.7ZM76.8,58.2h-6.8c-.8-3.5-1.7-6.5-3.2-8.8,4,1.5,7.7,4.4,10,8.8ZM61.9,48.6c.8,0,1.3-.1,2.1,0,1.3,1.9,2.8,5.5,3.6,9.8h-5.7c0,.1,0-9.8,0-9.8ZM61.9,60.9h5.9c.3,2.1.4,4.1.4,6.3s-.3,4.1-.4,6.3l-5.9-.8s0-11.7,0-11.7ZM62.6,86l-.8-.3v-11.2l5.7.9c-1.1,5.5-3.1,9.3-4.9,10.5h0ZM65.9,85.8c1.9-2.1,3.3-5.5,4.1-9.8l7.3,1.1c-2.3,4.9-6.5,8.1-11.4,8.8ZM70.3,73.5c.3-2.1.5-4.3.5-6.4s-.3-4.3-.5-6.4h7.3c.9,2.3,1.5,4.9,1.5,7.5s-.3,4.3-.9,6.3l-8-.9h.1Z"/>
    <path class="st1" d="M76.6,115.7c-.3,0-.7,0-1.1-.1l-26.2-7.2c-2.1-.6-3.4-2.8-2.8-4.9.6-2.1,2.8-3.4,4.9-2.8l26.2,7.2c2.1.6,3.4,2.8,2.8,4.9-.5,1.8-2.1,2.9-3.8,2.9Z"/>
  </g>
</svg>