<?xml version="1.0" encoding="UTF-8"?>
<svg xmlns="http://www.w3.org/2000/svg" viewBox="0 0 323.45 323.58">
  <defs>
    <style>
      .cls-1 {
        fill: #336;
      }
    </style>
  </defs>
  <g id="Layer_1" data-name="Layer 1">
    <g>
      <path class="cls-1" d="M84.25,62.09c-6.7,20.54-10.93,39.62-12.78,58.07,10.3-1.2,20.77-2.18,31.33-2.85,1-21.56,3.3-43.27,6.91-65.36,7.33-2.04,14.69-3.31,22.05-3.74-2.28,59.24-2.41,118.67-.38,178.57-7.77-.48-15.53-1.86-23.25-4.08-3.72-25.83-5.68-51.01-5.89-76.02-10.72-.36-21.35-.88-31.8-1.51.39,21.23,3.98,42.84,10.87,66.54-7.59-3.99-15.1-8.65-22.5-13.76-21.03-47.17-19.81-74.3,4.02-123.07,7.05-4.77,14.2-9.1,21.41-12.79Z"/>
      <path class="cls-1" d="M170.77,174.1c-.21,3.99-.19,7.59.06,10.78.25,3.2.93,5.8,2.03,7.76,1.1,1.97,2.66,3.32,4.68,4.03,2.02.71,4.63.58,7.87-.42,3.82-1.18,7.53-4.01,11.19-8.16,3.64-4.16,6.12-9.29,7.01-15.42.47-3.28.42-5.99-.13-8.21-.55-2.22-1.69-4.13-3.41-5.81-1.72-1.67-4.09-3.16-7.09-4.52-3.01-1.35-6.77-2.79-11.3-4.36-6.05-2.09-11.34-4.72-15.82-7.71-4.49-2.99-8.27-6.64-11.32-10.87-3.05-4.23-5.3-9.16-6.76-14.75-1.46-5.59-2.21-12.05-2.32-19.36-.25-17.58,2.98-30.7,8.66-38.39,5.74-7.67,13.05-10.03,23.23-5.78,4.76,1.97,9.33,4.94,13.88,8.62,4.54,3.68,8.94,8.16,13.2,13.1,4.25,4.95,8.26,10.29,11.76,15.79,3.5,5.52,6.35,11.17,8.06,17.07.34,1.16.65,2.31.96,3.45-7.98-2.29-16.11-4.4-24.34-6.22-1.13-7.05-3.37-12.89-6.24-17.54-2.89-4.63-6.66-7.88-11.35-9.28-2.69-.8-4.84-.86-6.49-.21-1.65.65-2.91,1.78-3.79,3.37-.88,1.59-1.41,3.56-1.58,5.87-.18,2.31-.16,4.74.06,7.27.44,5.23,1.6,9.73,3.57,13.43,1.96,3.71,5.9,7.29,11.82,10.64,7.15,4.2,14.29,8.16,21.33,11.64,5.2,2.61,9.42,5.01,12.66,7.27,3.23,2.27,5.76,4.49,7.55,6.77,1.79,2.28,2.91,4.7,3.29,7.39.39,2.7.25,5.73-.5,9.25-2.62,11.9-10.38,23.45-19.75,34.43-9.52,10.82-20.1,20.81-32.35,25.96-12.79,5.35-21.47,2.64-26.98-5.47-5.45-8.14-8.53-20.9-8.39-37.43.02-2.42.04-4.85.05-7.27,9.11-.18,18.21-.77,27.24-1.72-.07,1.67-.16,3.34-.24,5.02Z"/>
    </g>
  </g>
  <g id="Layer_2" data-name="Layer 2">
    <path class="cls-1" d="M136.34,273.67c30.03,0,58.51-9.61,82.34-27.56l93.76,75.77c2.54,2.26,6.34,2.26,8.88,0,2.54-2.55,2.96-7.07.42-10.04l-75.99-93.3c39.62-53.58,35.53-129.63-12.97-178.4C207.26,14.56,172.71,0,136.48,0S65.56,14.28,40.04,40.29C14.52,65.87,0,100.51,0,136.84s14.1,70.96,40.04,96.55c25.52,25.59,60.06,40.15,96.3,40.15v.14ZM60.77,61.77c20.02-20.07,47.09-31.24,75.57-31.24s55.27,11.17,75.29,31.24c41.45,41.56,41.45,109.55,0,151.26-20.02,20.07-47.09,31.24-75.29,31.24-28.48-.42-55.27-11.45-75.57-31.52-20.02-20.07-31.16-47.21-31.16-75.49s11.14-55.41,31.16-75.49Z"/>
  </g>
</svg>