<?xml version="1.0" encoding="UTF-8"?>
<svg id="Layer_1" xmlns="http://www.w3.org/2000/svg" version="1.1" viewBox="0 0 150 150">
  <!-- Generator: Adobe Illustrator 29.6.1, SVG Export Plug-In . SVG Version: 2.1.1 Build 9)  -->
  <defs>
    <style>
      .st0 {
        fill: #336;
      }
    </style>
  </defs>
  <path class="st0" d="M113.8,85.2c0-.2,0-.3.3-.5v-.2c1-.7,1,1,1.7.7s.3-1.2,0-1.4-1-.2-1.2-.5c-.3,0-.5-.2-.7-.5-.3-.5-.7-1-1-1.2-.5-.5-1.7-2.4-.7-3.1,1.2-.7,2.2,3.1,2.7,1.4.3-1-.3-1.9,0-2.9,0-.5.5-.7.7-1,.3-.5.7-.7.7-1.4.3-1.2-1-2.2,0-2.9.7-.7,1.9-1,2.7-1.4.3-.2.5-.2.7-.5.5-.2,1-.5,1.4-.7.5-.2,1.4-.2,1.7-.7.5-1.2-1.2-.7-1.9-1.2-.7-.5-.3-2.4.3-3.1,1-1.9,3.8-3.1,4.1-5.1-2.7-1.4-1.7-1.2-2.7-3.4-.7-1.4-1.2-1.4-2.2-1s-.7.2-1.4.5c-.3,1.4.3,3.8-.3,5.1-.3.5-.5,1-1,1.4-1.2,1-2.7,1-4.1,1.4-2.2,1-1.7,1.4-2.9,3.6-1.4,2.2-3.4,1.4-4.6,3.4-.7,1.2-1.7,2.4-2.9,3.1-.7.5-2.7,1.7-3.4.7-.3-.2,0-.7,0-1.2.3-1.4-.3-3.4-1-4.6-.3.7-1.4,1-1.9.2-.3-.7.3-1.4,0-1.9,0-.7-.3-1.2-.5-1.7-3.6-.2-3.1,5.3-3.1,7.4-.2,1.9-.7,3.6-2.2,1.4-1.4-2.2.2-4.8.5-6.9-.5.7-1.2.2-.7-.5.2-.5,1-1,1.4-1.2.7-.5,3.1-1,3.4-1.9.3-1.2-2.9-.7-3.6-.7s-1.4,0-1.9-.2c0,0-1-.7-.7-.7-.5.2-.5.7-1,1-.5.2-1.4.5-2.2.2-.5-.2-.7-.7-.7-1.2s.5-.7.7-1c-.7,0-1.4-.5-2.2-.7-.7-.2-1.4-.2-2.2-.5-1-.2-1.9-.2-3.1-.5h-.2c-1.9-.2-27.6-3.1-34.6-4.8-1.7-.5-3.4-1-5.1-1.4-1.4-.5-2.9-1-4.3-1.7-.2,0-.5-.2-.7-.2v1.7c0,.5-.2.7-.5,1s-.5.2-.7.2c0-.2.2-.7.5-1-1.9-2.9-2.7-1-2.9,1.2-.2,2.7-1.7,5.1-2.4,7.7-1.2,3.4-2.4,6.7-2.7,10.1,0,1-.5,3.1,0,4.1.2.5,1,.5,1.4,1,.7.7-.5,1.4-.5,1.9,0,1,.5,1.9.7,2.7.5,1.4,1,2.9,1.7,4.1s1.4,2.4,2.4,3.6c1.4,1.9,3.4,3.6,5.3,5.1,3.4,2.4,7.2,4.1,11,4.8,1.7.2,2.9-.2,4.1-.2,1.9,0,3.1,1,4.3,2.2.5.5,1,1.2,1.4,1.9.7,1.2,1.4,2.9,3.1,3.1,2.7.5,4.1-2.2,6,.7,1.4,1.9,1,5.1,2.7,6.9.7,1,3.6,1.7,4.3.7s-.5-2.9.5-4.3,2.9-2.7,4.1-4.1c1.7-1.9,5.1,0,6.9.5,1,.3,2.2.5,3.4.3,1.2-.3,1.9-.5,1.2-1.7-.2-.7-1-.7,0-1.4.5-.5,1.2-.5,1.9-.5,1.2-.3,2.7,0,3.8,0s1.7.3,2.4.3,1.4-.3,1.9,0c1.2.3,1.4,1.7,1.9,2.7.3.3.3.7.5,1,.5.7,1,1.7,1.2,2.4.3.5.7,1,1,1.4,1,1.4,2.2,2.9,3.6,3.8,1.2.7,1.7.3,1.9-1,.7-2.2-.3-5.1-1.2-7.2v-.3c-.7-1.2-1.4-2.9-1.7-4.6s-.3-3.6,1.2-4.8c.5-.5,1-.7,1.4-1,.5-.2.7-.7,1.2-1.2.3-.5.7-.7,1-1,1-1,1.7-1.9,2.4-3.1.7-1,1.2-2.4.5-3.6-.3-1.2-.5-1.2-.7-1.4M74.8,150c-8.4,0-16.8-1.4-24.7-4.3-10.8-3.8-20.2-9.6-28.1-17.8-10.1-10.1-16.8-22.6-19.9-36.3-1.2-5.5-1.9-11.3-1.9-16.8-.1-19.8,7.6-38.8,21.8-53C36.2,7.6,54.8,0,75,0s4.8.2,6.5.2c17.5,1.4,34.1,9.1,46.6,21.6,2.2,2.2,4.3,4.8,6.7,7.9,20.2,26.7,20.2,63.6,0,90.2-2.4,3.1-4.6,5.5-6.7,7.9-7.9,7.9-17.5,13.9-28.1,17.8-8.4,2.9-16.8,4.3-25.2,4.3h0ZM74.8,14.4c-16.1,0-31.4,6.2-42.7,17.7-11.5,11.5-17.7,26.7-17.7,42.7s.5,8.9,1.7,13.4c2.7,11,8.2,21.1,16.1,29.3,6.5,6.5,14.2,11.3,22.8,14.2,13.2,4.6,27.1,4.6,40.1,0,8.6-3.1,16.3-7.9,22.8-14.2,1.7-1.7,3.6-3.8,5.5-6.2,16.3-21.3,16.3-51.3,0-72.9-1.9-2.7-3.6-4.6-5.5-6.2-10.3-10.3-23.3-16.3-37.7-17.5-1.4,0-3.4-.2-5.3-.2h-.1Z"/>
</svg>